<?xml version="1.0" standalone="no"?>
<!DOCTYPE svg PUBLIC "-//W3C//DTD SVG 20010904//EN"
 "http://www.w3.org/TR/2001/REC-SVG-20010904/DTD/svg10.dtd">
<svg version="1.0" xmlns="http://www.w3.org/2000/svg"
 width="180.000000pt" height="180.000000pt" viewBox="0 0 180.000000 180.000000"
 preserveAspectRatio="xMidYMid meet">
<metadata>
Created by potrace 1.11, written by Peter Selinger 2001-2013
</metadata>
<g transform="translate(0.000000,180.000000) scale(0.100000,-0.100000)"
fill="#000000" stroke="none">
<path d="M330 995 l0 -215 190 0 190 0 0 45 0 45 -130 0 -130 0 0 170 0 170
-60 0 -60 0 0 -215z"/>
<path d="M750 1044 c0 -197 7 -217 91 -253 70 -31 198 -31 268 0 84 36 91 56
91 253 l0 166 -59 0 -60 0 -3 -155 c-3 -174 -7 -182 -76 -195 -51 -9 -103 8
-119 40 -8 17 -13 73 -13 168 l0 142 -60 0 -60 0 0 -166z"/>
<path d="M1270 1204 c0 -5 88 -116 147 -185 11 -13 2 -29 -69 -115 -44 -54
-85 -105 -91 -111 -7 -10 7 -13 67 -13 l76 0 47 65 c26 36 50 65 54 65 5 0 29
-29 54 -65 l47 -65 74 0 c41 0 74 2 74 4 0 2 -38 50 -85 107 -47 56 -85 107
-85 112 0 4 36 53 80 108 l81 99 -75 0 -75 0 -43 -60 c-23 -33 -44 -60 -48
-60 -3 0 -23 27 -45 60 l-40 59 -72 1 c-40 0 -73 -3 -73 -6z"/>
<path d="M343 703 c-16 -6 -18 -103 -3 -103 6 0 10 9 10 20 0 14 7 20 21 20
12 0 23 -8 26 -20 3 -11 10 -20 17 -20 7 0 10 17 8 50 -3 38 -8 50 -20 51 -10
0 -24 2 -32 3 -8 2 -21 1 -27 -1z m57 -33 c0 -5 -11 -10 -25 -10 -14 0 -25 5
-25 10 0 6 11 10 25 10 14 0 25 -4 25 -10z"/>
<path d="M451 700 c-11 -6 -10 -78 1 -95 8 -13 71 -11 76 3 2 7 -8 9 -27 7
-22 -3 -31 0 -31 10 0 10 10 15 30 15 17 0 30 5 30 10 0 6 -13 10 -30 10 -16
0 -30 5 -30 10 0 6 14 10 30 10 28 0 44 19 18 21 -7 0 -23 2 -35 3 -12 1 -27
0 -32 -4z"/>
<path d="M565 696 c-20 -15 -15 -43 10 -51 49 -16 49 -15 36 -28 -9 -9 -16 -9
-32 1 -12 8 -23 11 -26 8 -11 -10 19 -36 41 -36 49 0 64 55 19 66 -39 10 -47
15 -32 25 7 4 21 3 32 -3 26 -14 36 0 13 18 -25 18 -37 18 -61 0z"/>
<path d="M666 703 c-10 -10 -7 -103 3 -103 5 0 11 23 13 51 3 49 -2 66 -16 52z"/>
<path d="M716 702 c-3 -3 -6 -27 -6 -54 0 -43 2 -48 23 -50 39 -2 61 2 69 15
13 20 9 64 -6 76 -16 13 -71 22 -80 13z m73 -46 c2 -11 -5 -26 -15 -33 -31
-22 -44 -16 -44 23 0 33 2 35 27 32 18 -2 29 -10 32 -22z"/>
<path d="M844 702 c-10 -8 -14 -101 -5 -103 9 -2 44 -2 64 -1 9 1 17 7 17 13
0 5 -5 7 -10 4 -13 -8 -50 4 -50 16 0 5 14 9 30 9 17 0 30 5 30 10 0 6 -16 10
-35 10 -19 0 -35 5 -35 10 0 6 16 10 36 10 23 0 34 4 32 12 -5 13 -59 20 -74
10z"/>
<path d="M1029 688 c-1 -13 0 -32 1 -43 1 -15 -6 -11 -30 18 -43 51 -56 48
-54 -10 2 -64 2 -65 14 -58 6 3 10 21 10 38 l0 32 26 -32 c38 -48 54 -43 54
16 0 49 -19 84 -21 39z"/>
<path d="M1092 694 c-47 -32 -13 -114 42 -100 14 3 30 15 36 26 13 25 3 26
-22 3 -23 -21 -51 -8 -56 25 -4 29 31 47 52 27 16 -17 36 -20 36 -6 0 28 -59
45 -88 25z"/>
<path d="M1210 702 c-13 -5 -13 -102 0 -103 13 -2 46 -2 68 0 13 1 14 3 4 10
-8 4 -24 7 -38 5 -15 -1 -24 3 -24 12 0 9 11 14 30 14 17 0 30 5 30 10 0 6
-13 10 -30 10 -16 0 -30 5 -30 10 0 6 14 10 30 10 19 0 30 5 30 14 0 12 -42
17 -70 8z"/>
<path d="M1380 690 c-11 -11 -20 -29 -20 -40 0 -25 34 -60 58 -60 21 0 59 37
49 47 -4 3 -16 -2 -27 -12 -26 -24 -50 -13 -50 24 0 36 26 48 52 25 10 -10 21
-14 26 -10 9 9 -35 46 -54 46 -8 0 -23 -9 -34 -20z"/>
<path d="M1512 694 c-42 -29 -18 -104 34 -104 54 0 77 67 34 102 -27 22 -39
22 -68 2z m68 -50 c0 -14 -8 -25 -20 -29 -44 -14 -70 48 -27 64 28 11 47 -3
47 -35z"/>
<path d="M1633 694 c-10 -28 -7 -88 5 -92 7 -2 12 7 13 25 l1 28 14 -32 c8
-18 16 -33 19 -33 3 0 14 15 25 33 l20 32 0 -27 c0 -16 5 -28 10 -28 6 0 10
25 10 55 0 64 -16 66 -45 7 l-18 -37 -18 43 c-20 45 -26 51 -36 26z"/>
<path d="M50 645 l0 -46 108 3 107 3 3 43 3 42 -110 0 -111 0 0 -45z"/>
<path d="M1315 610 c-3 -5 1 -10 9 -10 9 0 16 5 16 10 0 6 -4 10 -9 10 -6 0
-13 -4 -16 -10z"/>
</g>
</svg>
